<?xml version="1.0" encoding="utf-8"?>
<!-- Generator: Adobe Illustrator 16.0.0, SVG Export Plug-In . SVG Version: 6.00 Build 0)  -->
<!DOCTYPE svg PUBLIC "-//W3C//DTD SVG 1.1//EN" "http://www.w3.org/Graphics/SVG/1.1/DTD/svg11.dtd">
<svg version="1.1" xmlns="http://www.w3.org/2000/svg" xmlns:xlink="http://www.w3.org/1999/xlink" x="0px" y="0px"
	 width="103.678px" height="166px" viewBox="0 0 103.678 166" enable-background="new 0 0 103.678 166" xml:space="preserve">
<g id="Layer_1" display="none">
	<g display="inline">
		<polygon fill="#414042" points="68.926,46.984 68.926,58.058 71.926,58.058 71.926,45.484 71.926,41.837 68.926,41.837 
			68.926,43.984 66.78,43.984 66.772,43.984 66.772,46.984 66.78,46.984 		"/>
		<path fill="#414042" d="M67.747,64.251h8.016c0.828,0,1.5-0.672,1.5-1.5s-0.672-1.5-1.5-1.5h-8.016c-0.829,0-1.5,0.672-1.5,1.5
			S66.917,64.251,67.747,64.251z"/>
		<path fill="#414042" d="M67.747,69.251h5.016c0.828,0,1.5-0.672,1.5-1.5s-0.672-1.5-1.5-1.5h-5.016c-0.829,0-1.5,0.672-1.5,1.5
			S66.917,69.251,67.747,69.251z"/>
		<path fill="#414042" d="M51.5,0C23.103,0,0,23.103,0,51.5c0,5.772,0.969,11.32,2.729,16.506c0.026,0.151,0.077,0.292,0.144,0.424
			c3.4,9.736,9.635,18.153,17.726,24.24c0.114,0.12,0.25,0.216,0.399,0.292c4.856,3.583,10.363,6.325,16.306,8.032
			c0.09,0.036,0.185,0.062,0.283,0.08C42.015,102.319,46.678,103,51.5,103c1.465,0,2.914-0.076,4.348-0.197
			c0.016,0.001,0.031,0.005,0.047,0.005c0.104,0,0.206-0.011,0.305-0.031c9.59-0.872,18.428-4.38,25.78-9.798
			c0.162-0.079,0.309-0.186,0.431-0.315c8.085-6.086,14.316-14.498,17.715-24.229c0.07-0.135,0.121-0.278,0.146-0.434
			C102.032,62.817,103,57.271,103,51.5C103,23.103,79.897,0,51.5,0z M20.178,88.487C14.121,83.35,9.342,76.757,6.379,69.251h13.799
			V88.487z M36.354,97.565c-4.759-1.569-9.192-3.854-13.176-6.73v-49.15l7.489-0.743h5.687V97.565z M54.395,99.906
			C53.436,99.963,52.473,100,51.5,100c-4.193,0-8.263-0.536-12.146-1.541V39.441c0-0.828-0.671-1.5-1.5-1.5h-5.756v-6.257h5.756
			c0.829,0,1.5-0.672,1.5-1.5v-6.302h15.042V99.906z M79.823,90.835c-4.879,3.522-10.43,6.166-16.428,7.685V37.697l16.428-1.63
			V90.835z M82.823,88.487V69.251h13.799C93.658,76.757,88.879,83.35,82.823,88.487z M97.7,66.251H82.823v-31.84
			c0-0.424-0.18-0.827-0.494-1.111c-0.313-0.284-0.736-0.433-1.154-0.381l-17.779,1.763V22.383v-1.5h-3v1.5v76.785
			c-0.99,0.185-1.99,0.338-3,0.461V22.383c0-0.062-0.012-0.123-0.02-0.184v-1.316h-1.48H37.854c-0.006,0-0.012,0.002-0.019,0.002
			v-0.002h-1.481v1.481h0.002c0,0.007-0.002,0.013-0.002,0.019v6.302h-5.756c-0.829,0-1.5,0.672-1.5,1.5v7.898l-7.568,0.751
			c-0.768,0.075-1.352,0.721-1.352,1.492v25.925H5.301C3.812,61.597,3,56.642,3,51.5C3,24.757,24.757,3,51.5,3
			C78.243,3,100,24.757,100,51.5C100,56.642,99.188,61.597,97.7,66.251z"/>
	</g>
</g>
<g id="Layer_2" display="none">
	<g display="inline">
		<circle fill="#414042" cx="32.307" cy="142.875" r="3"/>
		<path fill="#414042" d="M49.095,84.864c0.452-3.063,1.535-4.893,2.898-4.893c1.363,0,2.447,1.829,2.898,4.893l0.156,1.046h3.031
			l-0.219-1.483c-0.994-6.729-4.434-7.455-5.867-7.455c-1.433,0-4.873,0.727-5.867,7.455l-0.219,1.483h3.032L49.095,84.864z"/>
		<rect x="67.264" y="138.375" fill="#414042" width="7" height="3"/>
		<rect x="67.264" y="143.375" fill="#414042" width="7" height="3"/>
		<path fill="#414042" d="M69.764,55.16v-5.396H40.723v3h26.042v60.271l-2.928-12.447V89.472c0-13.615-6.198-28.564-11.843-28.564
			c-5.19,0-10.845,12.638-11.723,25.257h-3.048v-39.65c0-14.808,11.578-24.318,14.771-26.659
			c3.193,2.341,14.771,11.852,14.771,26.659h3c0-18.765-16.273-29.314-16.967-29.755c-0.491-0.311-1.117-0.311-1.608,0
			c-0.693,0.44-16.966,10.99-16.966,29.755v8.646C14.006,62.588,0.493,81.872,0.493,103.5c0,16.514,7.822,31.227,19.945,40.657
			c0.047,0.048,0.09,0.1,0.145,0.143c0.057,0.044,0.118,0.076,0.178,0.111C29.432,151.046,40.257,155,51.993,155
			c0.775,0,1.542-0.024,2.31-0.059h1.488v-0.097c10.262-0.752,19.695-4.517,27.419-10.422c0.066-0.037,0.132-0.074,0.194-0.122
			c0.061-0.046,0.107-0.103,0.158-0.155c12.115-9.432,19.93-24.139,19.93-40.646C103.493,81.873,89.981,62.589,69.764,55.16z
			 M69.764,80.725h5.811l-0.017,28.636h-5.794V80.725z M70.45,77.725l2.221-5.764l2.22,5.764H70.45z M69.764,112.36h5.793
			l-0.012,19.365l-5.781-7.45V112.36z M40.149,89.164v0.308v2.237l-2.545-2.545H40.149z M38.028,93.83h-8.09l4.045-4.045
			L38.028,93.83z M18.651,89.785l4.045,4.045h-8.09L18.651,89.785z M10.985,93.209L6.94,89.164h8.09L10.985,93.209z M22.272,89.164
			h4.645h0.001h3.444l-4.045,4.045L22.272,89.164z M34.223,80.725v5.439h-5.807l-0.003-5.439H34.223z M29.097,77.725l2.22-5.764
			l2.22,5.764H29.097z M34.223,58.36v12.796l-1.505-3.908c-0.223-0.579-0.779-0.961-1.4-0.961s-1.177,0.382-1.4,0.961l-4.405,11.438
			c-0.066,0.172-0.1,0.355-0.1,0.54l0.004,6.938H6.702C11.491,73.655,21.346,63.427,34.223,58.36z M5.012,91.478l2.353,2.353H4.467
			C4.627,93.039,4.813,92.256,5.012,91.478z M52.792,151.979c-0.267,0.005-0.531,0.021-0.798,0.021c-0.267,0-0.53-0.016-0.796-0.021
			v-17.17l0.797-1.04l0.797,1.04V151.979z M55.792,151.837v-17.535c0-0.33-0.109-0.65-0.31-0.912l-2.297-3
			c-0.567-0.74-1.814-0.74-2.382,0l-2.297,3c-0.201,0.262-0.309,0.582-0.309,0.912v17.535c-9.124-0.71-17.543-3.951-24.56-9.026
			l4.267-5.499c0.165-0.139,0.3-0.31,0.393-0.506l9.006-11.606c0.132-0.171,0.226-0.367,0.275-0.576l2.572-10.935v32.336
			c0,0.828,0.671,1.5,1.5,1.5s1.5-0.672,1.5-1.5v-45.578h-2.967l-5.45,23.172l-6.291,8.107V112.36h5.788l0.701-2.979
			c-0.068-0.01-0.136-0.021-0.208-0.021h-6.281v-8.914h-3.02l0.022,35.143l-4.188,5.397C10.419,132.084,3.493,118.587,3.493,103.5
			c0-2.255,0.165-4.481,0.468-6.67h7.024H23.43h1.992h3h0.885h12.343c0.829,0,1.5-0.672,1.5-1.5v-5.858
			c0-13.205,6.081-25.564,8.844-25.564c2.763,0,8.843,12.359,8.843,25.564v10.975H46.65v3h14.186v15.865H46.65v3h14.186v23.713
			c0,0.828,0.672,1.5,1.5,1.5c0.829,0,1.5-0.672,1.5-1.5v-32.336l2.572,10.935c0.05,0.209,0.144,0.405,0.275,0.576l9.006,11.605
			c0.093,0.197,0.229,0.368,0.393,0.507l4.268,5.498C73.333,147.886,64.915,151.126,55.792,151.837z M82.731,140.985l-4.188-5.397
			l0.031-56.362c0-0.001,0-0.001,0-0.001c0-0.179-0.036-0.349-0.094-0.508c-0.004-0.01-0.002-0.021-0.006-0.031L74.07,67.248
			c-0.224-0.579-0.779-0.961-1.399-0.961c-0.621,0-1.178,0.382-1.4,0.961l-1.506,3.908V58.361
			c18.465,7.265,30.729,25.142,30.729,45.139C100.493,118.586,93.568,132.083,82.731,140.985z"/>
	</g>
</g>
<g id="Layer_3">
	<path fill="#414042" d="M90.131,76.651c-8.705-9.467-20.525-15.309-33.285-16.447l-0.133-0.012V37.447
		c0-0.568-0.322-1.088-0.83-1.342l-5.17-2.586V13.697l-3,2v44.496l-0.134,0.012c-12.76,1.139-24.581,6.98-33.285,16.447
		C5.536,86.177,0.713,98.551,0.713,111.5c0,28.396,23.103,51.5,51.5,51.5c28.397,0,51.5-23.104,51.5-51.5
		C103.713,98.551,98.889,86.177,90.131,76.651z M99.518,100.816H75.954c1.303-2.59,4-4.328,6.99-4.328
		c1.412,0,2.805,0.389,4.029,1.127l1.094,0.66l0.824-0.975c2.051-2.416,4.824-4.131,7.896-4.914
		C97.954,95.104,98.868,97.922,99.518,100.816z M50.713,36.874l3,1.5v0.573h-3V36.874z M50.713,41.947h3v43.974h-3V41.947z
		 M50.713,159.961v-17.668h-3v17.49c-1.009-0.094-2.01-0.211-3-0.365v-17.125h-3v16.549c-1.013-0.225-2.013-0.482-3-0.77v-15.779h-3
		v14.812c-18.644-6.766-32-24.654-32-45.605c0-12.193,4.542-23.849,12.789-32.817c8.167-8.885,19.247-14.373,31.211-15.475v22.713
		h-3V71.812l-3,2v15.109h18v47.372h-3V91.922h-3v44.371h-3V91.922h-3v44.371h-3V91.922h-3v44.371h-3v-13.549l-3,2v14.549h30v18.779
		c-0.988,0.287-1.988,0.545-3,0.77v-16.549h-3v17.125c-0.99,0.154-1.992,0.271-3,0.365v-17.49h-3v17.668
		c-0.5,0.016-0.998,0.039-1.5,0.039C51.71,160,51.212,159.977,50.713,159.961z M68.713,157.105v-19.312c0-0.83-0.672-1.5-1.5-1.5
		h-4.5V87.421c0-0.828-0.672-1.5-1.5-1.5h-4.5V63.208C68.676,64.31,79.754,69.8,87.922,78.683c3.053,3.318,5.592,7.004,7.586,10.948
		c-3.068,0.885-5.869,2.545-8.09,4.834c-1.406-0.643-2.932-0.977-4.475-0.977c-5.047,0-9.49,3.578-10.566,8.508l-0.398,1.82h28.113
		c0.402,2.523,0.621,5.09,0.621,7.684C100.713,132.451,87.356,150.34,68.713,157.105z"/>
</g>
<g id="Layer_4" display="none">
	<g display="inline">
		<path fill="#414042" d="M68.026,85.771V68.728h1.5c0.828,0,1.5-0.672,1.5-1.5s-0.672-1.5-1.5-1.5h-36c-0.83,0-1.5,0.672-1.5,1.5
			s0.67,1.5,1.5,1.5h1.5v19.544h-1.5c-0.83,0-1.5,0.672-1.5,1.5s0.67,1.5,1.5,1.5h31.5v19.401h3V91.271h1.5
			c0.828,0,1.5-0.672,1.5-1.5s-0.672-1.5-1.5-1.5h-31.5V68.728h27v17.044H68.026z"/>
		<path fill="#414042" d="M45.524,93.989c-2.449,0-4.441,1.992-4.441,4.441v10h3v-10c0-0.795,0.646-1.441,1.441-1.441
			s1.443,0.646,1.443,1.441v10h3v-10C49.967,95.981,47.973,93.989,45.524,93.989z"/>
		<path fill="#414042" d="M57.524,93.989c-2.449,0-4.441,1.992-4.441,4.441v10h3v-10c0-0.795,0.646-1.441,1.441-1.441
			s1.443,0.646,1.443,1.441v10h3v-10C61.967,95.981,59.973,93.989,57.524,93.989z"/>
		<path fill="#414042" d="M44.083,120.563c0-0.828-0.672-1.5-1.5-1.5s-1.5,0.672-1.5,1.5v4h3V120.563z"/>
		<path fill="#414042" d="M44.083,135.563c0-0.828-0.672-1.5-1.5-1.5s-1.5,0.672-1.5,1.5v4h3V135.563z"/>
		<path fill="#414042" d="M50.463,71.903l-3.535,3.536c-0.584,0.586-0.584,1.535,0.002,2.121l3.535,3.535
			c0.281,0.281,0.662,0.439,1.061,0.439c0.396,0,0.779-0.158,1.061-0.439l3.535-3.536c0.586-0.586,0.586-1.535,0-2.121l-3.535-3.535
			C52.024,71.341,51.028,71.341,50.463,71.903z M51.526,77.914L50.112,76.5l1.414-1.415l1.414,1.414L51.526,77.914z"/>
		<path fill="#414042" d="M51.411,53.506l3.684,9.583h3.215l-5.498-14.3c-0.223-0.579-0.779-0.962-1.4-0.962s-1.178,0.382-1.4,0.962
			l-5.5,14.3h3.213L51.411,53.506z"/>
		<path fill="#414042" d="M103.026,96.5c0-25.253-18.801-47.143-43.729-50.917l-0.848-0.128l-5.625-14.628h1.027
			c0.828,0,1.5-0.672,1.5-1.5s-0.672-1.5-1.5-1.5h-4.879c-0.828,0-1.5,0.672-1.5,1.5s0.672,1.5,1.5,1.5h1.021l-5.639,14.66
			l-0.854,0.134C18.311,49.562,0.026,70.961,0.026,96.5c0,13.211,5.004,25.272,13.211,34.398c0.098,0.158,0.223,0.295,0.371,0.407
			C23.028,141.56,36.536,148,51.526,148c12.766,0,24.451-4.68,33.461-12.399c0.113-0.065,0.23-0.121,0.328-0.219
			c0.047-0.046,0.064-0.106,0.104-0.156C96.2,125.778,103.026,111.926,103.026,96.5z M19.897,118.437
			c1.014,0,1.898,0.538,2.402,1.34h-4.803C17.999,118.975,18.883,118.437,19.897,118.437z M35.026,142.106
			c-6.359-2.308-12.094-5.915-16.9-10.49h7.611h9.289V142.106z M17.057,128.616v-5.84h5.68v5.84H17.057z M65.026,115.173v14.934
			c0,0.004-0.002,0.007-0.002,0.01s0.002,0.006,0.002,0.01v12.948c-1.312,0.381-2.645,0.716-4,0.985v-28.887H65.026z
			 M68.026,131.616h11.402l2.574,2.574c-4.15,3.363-8.863,6.06-13.977,7.916V131.616z M84.284,132.229l-3.613-3.612H68.026v-13.443
			h1.5c0.828,0,1.5-0.672,1.5-1.5s-0.672-1.5-1.5-1.5h-31.5V93.771h-3v18.401h-1.5c-0.83,0-1.5,0.672-1.5,1.5s0.67,1.5,1.5,1.5h24.5
			v29.379c-2.129,0.286-4.295,0.448-6.5,0.448c-4.686,0-9.213-0.681-13.5-1.926v-25.401h-3v10.943h-9.289v-7.34
			c0-2.7-1.846-4.973-4.34-5.638v-2.969c0-0.828-0.672-1.5-1.5-1.5s-1.5,0.672-1.5,1.5v2.969c-2.494,0.665-4.34,2.938-4.34,5.638
			v5.984C7.168,118.884,3.026,108.167,3.026,96.5c0-23.758,16.805-43.699,40.08-47.76l-5.52,14.349h3.215l10.609-27.583
			l10.607,27.583h3.213l-5.533-14.391c23.049,3.919,40.328,24.309,40.328,47.802C100.026,110.626,93.952,123.356,84.284,132.229z"/>
	</g>
</g>
<g id="Layer_5" display="none">
	<g display="inline">
		<g>
			<path fill="#414042" d="M47.567,145.835h-15c-0.828,0-1.5,0.672-1.5,1.5s0.672,1.5,1.5,1.5h15c0.828,0,1.5-0.672,1.5-1.5
				S48.395,145.835,47.567,145.835z"/>
			<path fill="#414042" d="M47.567,151.836h-15c-0.828,0-1.5,0.672-1.5,1.5s0.672,1.5,1.5,1.5h15c0.828,0,1.5-0.672,1.5-1.5
				S48.395,151.836,47.567,151.836z"/>
			<path fill="#414042" d="M56.067,154.836h18v-9.001h-18V154.836z M59.067,148.835h12v3.001h-12V148.835z"/>
			<path fill="#414042" d="M52.178,100.836h2.918c0.828,0,1.5-0.672,1.5-1.5s-0.672-1.5-1.5-1.5h-2.918c-0.828,0-1.5,0.672-1.5,1.5
				S51.35,100.836,52.178,100.836z"/>
			<path fill="#414042" d="M47.895,115.044h2.916c0.828,0,1.5-0.672,1.5-1.5s-0.672-1.5-1.5-1.5h-2.916c-0.828,0-1.5,0.672-1.5,1.5
				S47.067,115.044,47.895,115.044z"/>
			<path fill="#414042" d="M46.293,21.738c0.098,0.02,0.199,0.03,0.303,0.03h17c0.826,0,1.5,0.673,1.5,1.5s-0.674,1.5-1.5,1.5h-7
				c-0.104,0-0.205,0.011-0.303,0.03c-2.338,0.159-4.197,2.092-4.197,4.47c0,0.828,0.672,1.5,1.5,1.5s1.5-0.672,1.5-1.5
				c0-0.827,0.672-1.5,1.5-1.5h7c0.104,0,0.205-0.011,0.303-0.03c2.338-0.159,4.197-2.092,4.197-4.47s-1.859-4.311-4.197-4.47
				c-0.098-0.02-0.199-0.03-0.303-0.03h-17c-0.828,0-1.5-0.673-1.5-1.5s0.672-1.5,1.5-1.5h7c0.104,0,0.205-0.011,0.303-0.03
				c2.338-0.159,4.197-2.092,4.197-4.47c0-0.828-0.672-1.5-1.5-1.5s-1.5,0.672-1.5,1.5c0,0.827-0.674,1.5-1.5,1.5h-7
				c-0.104,0-0.205,0.011-0.303,0.03c-2.338,0.159-4.197,2.092-4.197,4.47S43.956,21.579,46.293,21.738z"/>
			<polygon fill="#414042" points="29.247,84.479 29.247,78.484 27.747,76.984 26.247,78.484 26.247,84.479 23.567,84.479 
				23.567,87.479 31.567,87.479 31.567,84.479 			"/>
		</g>
		<g>
			<path fill="#414042" d="M62.434,64.034L61.547,34.79c-0.025-0.81-0.689-1.454-1.5-1.454H45.084c-0.811,0-1.475,0.645-1.498,1.454
				l-0.883,29.094C18.28,68.411,0.678,89.495,0.678,114.5c0,14.116,5.713,26.921,14.943,36.233c0.109,0.161,0.25,0.3,0.412,0.408
				c5.826,5.746,13.006,10.12,21.016,12.587c0.09,0.036,0.184,0.062,0.281,0.08c3.209,0.969,6.549,1.632,9.986,1.955
				c0.082,0.014,0.164,0.025,0.25,0.025c0.012,0,0.023-0.003,0.035-0.004c1.508,0.134,3.033,0.215,4.576,0.215
				c5.16,0,10.143-0.771,14.846-2.19c0.113-0.02,0.221-0.049,0.324-0.092c8.371-2.586,15.828-7.258,21.783-13.399
				c0.158-0.112,0.295-0.254,0.398-0.419c8.76-9.236,14.148-21.696,14.148-35.399C103.678,89.892,86.405,68.869,62.434,64.034z
				 M42.612,66.949l-1.633,53.841c-0.025,0.828,0.625,1.521,1.453,1.545c0.826,0.039,1.52-0.625,1.545-1.453l0.609-20.104
				c0.125,0.034,0.254,0.059,0.391,0.059h2.918c0.828,0,1.5-0.672,1.5-1.5s-0.672-1.5-1.5-1.5h-2.918
				c-0.104,0-0.205,0.011-0.303,0.03l1.217-40.107h1.461c0.828,0,1.5-0.672,1.5-1.5s-0.672-1.5-1.5-1.5h-1.371l0.559-18.423h12.053
				l0.139,4.525h-1.582c-0.828,0-1.5,0.672-1.5,1.5s0.672,1.5,1.5,1.5h1.672L59.94,80.75h-1.332c-0.828,0-1.5,0.672-1.5,1.5
				s0.672,1.5,1.5,1.5h1.422l1.127,37.132c0.023,0.812,0.689,1.454,1.498,1.454c0.016,0,0.031,0,0.047-0.001
				c0.826-0.024,1.479-0.717,1.453-1.545l-1.16-38.246c0.02-0.095,0.029-0.193,0.029-0.294c0-0.126-0.02-0.247-0.049-0.364
				l-0.449-14.774c3.309,0.717,6.473,1.766,9.469,3.102c-1.385,4.447-3.1,16.3-4.055,55.379H34.067V90.979
				c0-0.828-0.672-1.5-1.5-1.5h-10c-0.828,0-1.5,0.672-1.5,1.5v6.5h-7v-6.5c0-0.828-0.672-1.5-1.5-1.5h-2.008
				C17.387,78.075,28.811,69.695,42.612,66.949z M21.067,100.479v13.977h-7v-13.977H21.067z M86.768,148.452
				c-5.559,5.664-12.49,9.977-20.254,12.384h-8.947c-0.828,0-1.5,0.672-1.5,1.5c0,0.172,0.035,0.334,0.088,0.487
				c-1.312,0.107-2.637,0.177-3.977,0.177c-1.047,0-2.082-0.045-3.111-0.11v-2.054H37.842c-7.406-2.297-14.055-6.331-19.479-11.614
				v-14.63h68.404V148.452z M96.047,121.329h4.141c-1.264,8.935-4.967,17.093-10.42,23.776v-13.514H15.364v14.43
				C8.088,137.537,3.678,126.527,3.678,114.5c0-4.867,0.719-9.573,2.045-14.021h2.844v-3H6.715c0.635-1.716,1.375-3.381,2.195-5
				h2.156v6.5v16.977c0,0.828,0.672,1.5,1.5,1.5h10c0.828,0,1.5-0.672,1.5-1.5V92.479h7v33.112H14.864c-0.828,0-1.5,0.672-1.5,1.5
				s0.672,1.5,1.5,1.5h54.504h0.037h20.863c0.828,0,1.5-0.672,1.5-1.5s-0.672-1.5-1.5-1.5H70.94
				c0.723-29.438,1.994-47.588,3.789-54.04c3.473,1.83,6.719,4.109,9.666,6.735h-5.32c-0.117,0.928-0.232,1.936-0.344,3h8.75
				c0.873,0.926,1.709,1.884,2.506,2.875c-0.322,4.015-0.582,8.74-0.777,14.146H77.485c-0.051,0.978-0.102,1.975-0.15,3H89.11
				c-0.156,5.125-0.258,10.811-0.309,17.021H76.694c-0.029,0.983-0.059,1.987-0.086,3H90.28c0.004,0,0.008,0,0.01,0
				c0.104,0,0.205-0.011,0.303-0.03c0.025-0.006,0.051-0.017,0.076-0.024c0.07-0.018,0.139-0.035,0.205-0.062
				c0.025-0.012,0.049-0.028,0.074-0.041c0.061-0.03,0.123-0.06,0.18-0.098c0.027-0.018,0.049-0.041,0.074-0.061
				c0.051-0.039,0.102-0.076,0.146-0.122c0.027-0.025,0.047-0.057,0.072-0.085c0.037-0.044,0.078-0.087,0.111-0.136
				c0.025-0.036,0.041-0.076,0.062-0.114c0.025-0.047,0.055-0.091,0.076-0.14c0.02-0.045,0.029-0.094,0.045-0.141
				c0.014-0.046,0.033-0.091,0.043-0.14c0.01-0.048,0.01-0.1,0.016-0.15c0.006-0.049,0.016-0.096,0.016-0.146
				c0.084-13.022,0.4-23.748,0.938-31.986c2.129,3.242,3.873,6.749,5.18,10.455h-1.199c-0.828,0-1.5,0.672-1.5,1.5
				s0.672,1.5,1.5,1.5h2.152c1.184,4.208,1.818,8.634,1.818,13.192c0,1.29-0.064,2.564-0.164,3.829h-4.467
				c-0.828,0-1.5,0.672-1.5,1.5S95.219,121.329,96.047,121.329z"/>
		</g>
	</g>
</g>
</svg>
