<?xml version="1.0" encoding="utf-8"?>
<!-- Generator: Adobe Illustrator 16.0.0, SVG Export Plug-In . SVG Version: 6.00 Build 0)  -->
<!DOCTYPE svg PUBLIC "-//W3C//DTD SVG 1.1//EN" "http://www.w3.org/Graphics/SVG/1.1/DTD/svg11.dtd">
<svg version="1.1" xmlns="http://www.w3.org/2000/svg" xmlns:xlink="http://www.w3.org/1999/xlink" x="0px" y="0px"
	 width="103.678px" height="166px" viewBox="0 0 103.678 166" enable-background="new 0 0 103.678 166" xml:space="preserve">
<g id="Layer_1" display="none">
	<g display="inline">
		<polygon fill="#414042" points="69.318,109.984 69.318,121.058 72.318,121.058 72.318,108.484 72.318,104.837 69.318,104.837 
			69.318,106.984 67.171,106.984 67.164,106.984 67.164,109.984 67.171,109.984 		"/>
		<path fill="#414042" d="M68.138,127.251h8.016c0.828,0,1.5-0.672,1.5-1.5s-0.672-1.5-1.5-1.5h-8.016c-0.829,0-1.5,0.672-1.5,1.5
			S67.309,127.251,68.138,127.251z"/>
		<path fill="#414042" d="M68.138,132.251h5.016c0.828,0,1.5-0.672,1.5-1.5s-0.672-1.5-1.5-1.5h-5.016c-0.829,0-1.5,0.672-1.5,1.5
			S67.309,132.251,68.138,132.251z"/>
		<path fill="#414042" d="M51.891,63c-28.397,0-51.5,23.103-51.5,51.5c0,5.772,0.969,11.32,2.729,16.506
			c0.026,0.151,0.077,0.292,0.144,0.424c3.4,9.736,9.635,18.153,17.726,24.24c0.114,0.12,0.25,0.216,0.399,0.292
			c4.856,3.583,10.363,6.325,16.306,8.032c0.09,0.036,0.185,0.062,0.283,0.08c4.429,1.245,9.092,1.926,13.914,1.926
			c1.466,0,2.914-0.076,4.349-0.197c0.016,0.001,0.031,0.005,0.047,0.005c0.104,0,0.206-0.011,0.305-0.031
			c9.59-0.872,18.428-4.38,25.78-9.798c0.162-0.079,0.309-0.186,0.431-0.315c8.085-6.086,14.316-14.498,17.715-24.229
			c0.07-0.135,0.121-0.278,0.146-0.434c1.76-5.184,2.729-10.729,2.729-16.501C103.392,86.103,80.289,63,51.891,63z M20.569,151.487
			c-6.057-5.138-10.835-11.73-13.799-19.236h13.799V151.487z M36.745,160.565c-4.759-1.569-9.192-3.854-13.176-6.73v-49.15
			l7.489-0.743h5.687V160.565z M54.787,162.906c-0.959,0.057-1.923,0.094-2.896,0.094c-4.193,0-8.263-0.536-12.146-1.541v-59.018
			c0-0.828-0.671-1.5-1.5-1.5h-5.756v-6.257h5.756c0.829,0,1.5-0.672,1.5-1.5v-6.302h15.042V162.906z M80.214,153.835
			c-4.879,3.522-10.43,6.166-16.428,7.685v-60.822l16.428-1.63V153.835z M83.214,151.487v-19.236h13.799
			C94.049,139.757,89.271,146.35,83.214,151.487z M98.091,129.251H83.214v-31.84c0-0.424-0.18-0.827-0.494-1.111
			c-0.313-0.284-0.736-0.433-1.154-0.381l-17.779,1.763V85.383v-1.5h-3v1.5v76.785c-0.99,0.185-1.99,0.338-3,0.461V85.383
			c0-0.062-0.012-0.123-0.02-0.184v-1.316h-1.48H38.245c-0.006,0-0.012,0.002-0.019,0.002v-0.002h-1.481v1.481h0.002
			c0,0.007-0.002,0.013-0.002,0.019v6.302h-5.756c-0.829,0-1.5,0.672-1.5,1.5v7.898l-7.568,0.751
			c-0.768,0.075-1.352,0.721-1.352,1.492v25.925H5.692c-1.489-4.654-2.301-9.609-2.301-14.751c0-26.743,21.757-48.5,48.5-48.5
			s48.501,21.757,48.501,48.5C100.392,119.642,99.58,124.597,98.091,129.251z"/>
	</g>
</g>
<g id="Layer_2" display="none">
	<g display="inline">
		<circle fill="#414042" cx="32.205" cy="153.875" r="3"/>
		<path fill="#414042" d="M48.993,95.865c0.452-3.064,1.535-4.893,2.898-4.893c1.363,0,2.447,1.828,2.898,4.893l0.156,1.045h3.031
			l-0.219-1.482c-0.994-6.729-4.434-7.455-5.867-7.455c-1.433,0-4.873,0.727-5.867,7.455l-0.219,1.482h3.032L48.993,95.865z"/>
		<rect x="67.163" y="149.375" fill="#414042" width="7" height="3"/>
		<rect x="67.163" y="154.375" fill="#414042" width="7" height="3"/>
		<path fill="#414042" d="M69.663,66.161v-5.396H40.621v3h26.042v60.271l-2.928-12.447v-11.115c0-13.615-6.198-28.564-11.843-28.564
			c-5.19,0-10.845,12.637-11.723,25.256h-3.048V57.515c0-14.808,11.578-24.318,14.771-26.659
			c3.193,2.341,14.771,11.852,14.771,26.659h3c0-18.765-16.273-29.314-16.967-29.755c-0.491-0.311-1.117-0.311-1.608,0
			c-0.693,0.44-16.966,10.99-16.966,29.755v8.646C13.904,73.589,0.392,92.873,0.392,114.5c0,16.514,7.822,31.227,19.945,40.658
			c0.047,0.047,0.09,0.1,0.145,0.143c0.057,0.043,0.118,0.076,0.178,0.111C29.33,162.047,40.155,166,51.892,166
			c0.775,0,1.542-0.023,2.31-0.059h1.488v-0.096c10.262-0.752,19.695-4.518,27.419-10.422c0.066-0.037,0.132-0.074,0.194-0.123
			c0.061-0.045,0.107-0.102,0.158-0.154c12.115-9.432,19.93-24.139,19.93-40.646C103.391,92.873,89.879,73.59,69.663,66.161z
			 M69.663,91.725h5.811l-0.017,28.637h-5.794V91.725z M70.348,88.725l2.221-5.764l2.22,5.764H70.348z M69.663,123.361h5.793
			l-0.012,19.365l-5.781-7.451V123.361z M40.048,100.164v0.309v2.236l-2.545-2.545H40.048z M37.927,104.83h-8.09l4.045-4.045
			L37.927,104.83z M18.55,100.785l4.045,4.045h-8.09L18.55,100.785z M10.884,104.209l-4.045-4.045h8.09L10.884,104.209z
			 M22.171,100.164h4.645h0.001h3.444l-4.045,4.045L22.171,100.164z M34.121,91.725v5.439h-5.807l-0.003-5.439H34.121z
			 M28.996,88.725l2.22-5.764l2.22,5.764H28.996z M34.121,69.361v12.795l-1.505-3.907c-0.223-0.579-0.779-0.961-1.4-0.961
			s-1.177,0.382-1.4,0.961l-4.405,11.437c-0.066,0.172-0.1,0.355-0.1,0.541l0.004,6.938H6.601
			C11.39,84.656,21.244,74.428,34.121,69.361z M4.91,102.479l2.353,2.352H4.365C4.526,104.039,4.711,103.256,4.91,102.479z
			 M52.69,162.98c-0.267,0.004-0.531,0.02-0.798,0.02c-0.267,0-0.53-0.016-0.796-0.02v-17.17l0.797-1.041l0.797,1.041V162.98z
			 M55.69,162.838v-17.535c0-0.33-0.109-0.65-0.31-0.912l-2.297-3c-0.567-0.74-1.814-0.74-2.382,0l-2.297,3
			c-0.201,0.262-0.309,0.582-0.309,0.912v17.535c-9.124-0.711-17.543-3.951-24.56-9.027l4.267-5.498
			c0.165-0.139,0.3-0.311,0.393-0.506l9.006-11.607c0.132-0.17,0.226-0.367,0.275-0.576l2.572-10.934v32.336
			c0,0.828,0.671,1.5,1.5,1.5s1.5-0.672,1.5-1.5v-45.578h-2.967l-5.45,23.172l-6.291,8.107v-19.365h5.788l0.701-2.98
			c-0.068-0.01-0.136-0.02-0.208-0.02H28.34v-8.914h-3.02l0.022,35.143l-4.188,5.396C10.317,143.084,3.392,129.588,3.392,114.5
			c0-2.254,0.165-4.48,0.468-6.67h7.024h12.445h1.992h3h0.885h12.343c0.829,0,1.5-0.672,1.5-1.5v-5.857
			c0-13.205,6.081-25.564,8.844-25.564c2.763,0,8.843,12.359,8.843,25.564v10.975H46.549v3h14.186v15.865H46.549v3h14.186v23.713
			c0,0.828,0.672,1.5,1.5,1.5c0.829,0,1.5-0.672,1.5-1.5v-32.336l2.572,10.934c0.05,0.209,0.144,0.406,0.275,0.576l9.006,11.605
			c0.093,0.197,0.229,0.369,0.393,0.508l4.268,5.498C73.231,158.887,64.813,162.127,55.69,162.838z M82.629,151.986l-4.188-5.398
			l0.031-56.361c0-0.002,0-0.002,0-0.002c0-0.178-0.036-0.348-0.094-0.508c-0.004-0.01-0.002-0.021-0.006-0.031l-4.405-11.437
			c-0.224-0.579-0.779-0.961-1.399-0.961c-0.621,0-1.178,0.382-1.4,0.961l-1.506,3.907V69.362
			c18.465,7.265,30.729,25.142,30.729,45.138C100.391,129.586,93.466,143.084,82.629,151.986z"/>
	</g>
</g>
<g id="Layer_3" display="none">
	<path display="inline" fill="#414042" d="M95.943,88.201L56.39,65.366V40.447c0-0.568-0.32-1.088-0.828-1.342l-5.171-2.586V16.697
		l-3,2v46.669L7.839,88.201c-0.464,0.268-0.75,0.763-0.75,1.299v50c0,0.536,0.286,1.031,0.75,1.299l43.302,25
		c0.231,0.134,0.491,0.201,0.75,0.201s0.519-0.067,0.749-0.201l43.303-25c0.463-0.268,0.75-0.763,0.75-1.299v-29.854V94.7v-5.2
		C96.693,88.964,96.406,88.469,95.943,88.201z M50.391,39.874l2.999,1.5v0.573h-2.999V39.874z M50.391,44.947h2.999v43.975h-2.999
		V44.947z M51.891,162.768l-1.5-0.866v-16.608h-3v14.877l-3-1.732v-13.145h-3v11.413l-3-1.732v-9.681h-3v7.948l-25.302-14.607
		V90.366L47.391,68.83v20.092h-3V74.812l-3,2v15.109H59.39v47.371h-3V94.922h-3v44.371h-2.999V94.922h-3v44.371h-3V94.922h-3v44.371
		h-3v-13.549l-3,2v14.549H65.39v12.681l-3,1.732v-11.413h-3v13.145l-3,1.732v-14.877h-3v16.608L51.891,162.768z M93.693,138.634
		L68.39,153.241v-12.448c0-0.829-0.672-1.5-1.5-1.5h-4.5V90.422c0-0.828-0.672-1.5-1.5-1.5h-4.5V68.83l37.303,21.536v4.91
		c-3.332,0.824-6.375,2.562-8.756,5.018c-1.406-0.642-2.932-0.977-4.475-0.977c-5.047,0-9.49,3.578-10.566,8.509l-0.396,1.819
		h24.193V138.634z M93.693,98.379v8.267H73.472c1.303-2.59,4-4.328,6.99-4.328c1.412,0,2.805,0.391,4.029,1.128l1.094,0.659
		l0.826-0.974C88.324,100.875,90.865,99.226,93.693,98.379z"/>
</g>
<g id="Layer_4">
	<g>
		<path fill="#414042" d="M68.391,103.771V86.728h1.5c0.828,0,1.5-0.672,1.5-1.5s-0.672-1.5-1.5-1.5h-36c-0.83,0-1.5,0.672-1.5,1.5
			s0.67,1.5,1.5,1.5h1.5v19.544h-1.5c-0.83,0-1.5,0.672-1.5,1.5s0.67,1.5,1.5,1.5h31.5v19.401h3v-19.401h1.5
			c0.828,0,1.5-0.672,1.5-1.5s-0.672-1.5-1.5-1.5h-31.5V86.728h27v17.044H68.391z"/>
		<path fill="#414042" d="M45.889,111.989c-2.449,0-4.441,1.992-4.441,4.441v10h3v-10c0-0.795,0.646-1.441,1.441-1.441
			s1.443,0.646,1.443,1.441v10h3v-10C50.333,113.981,48.338,111.989,45.889,111.989z"/>
		<path fill="#414042" d="M57.889,111.989c-2.449,0-4.441,1.992-4.441,4.441v10h3v-10c0-0.795,0.646-1.441,1.441-1.441
			s1.443,0.646,1.443,1.441v10h3v-10C62.333,113.981,60.338,111.989,57.889,111.989z"/>
		<path fill="#414042" d="M44.448,138.563c0-0.828-0.672-1.5-1.5-1.5s-1.5,0.672-1.5,1.5v4h3V138.563z"/>
		<path fill="#414042" d="M44.448,153.563c0-0.828-0.672-1.5-1.5-1.5s-1.5,0.672-1.5,1.5v4h3V153.563z"/>
		<path fill="#414042" d="M50.829,89.903l-3.535,3.536c-0.584,0.586-0.584,1.535,0.002,2.121l3.535,3.535
			c0.281,0.281,0.662,0.439,1.061,0.439c0.396,0,0.779-0.158,1.061-0.439l3.535-3.536c0.586-0.586,0.586-1.535,0-2.121l-3.535-3.535
			C52.389,89.341,51.393,89.341,50.829,89.903z M51.891,95.914L50.477,94.5l1.414-1.415l1.414,1.414L51.891,95.914z"/>
		<path fill="#414042" d="M51.776,71.506l3.684,9.583h3.215l-5.498-14.3c-0.223-0.579-0.779-0.962-1.4-0.962s-1.178,0.382-1.4,0.962
			l-5.5,14.3h3.213L51.776,71.506z"/>
		<path fill="#414042" d="M103.391,114.5c0-25.253-18.801-47.143-43.729-50.917l-0.848-0.128L53.19,48.827h1.027
			c0.828,0,1.5-0.672,1.5-1.5s-0.672-1.5-1.5-1.5h-4.879c-0.828,0-1.5,0.672-1.5,1.5s0.672,1.5,1.5,1.5h1.021l-5.639,14.66
			l-0.854,0.134C18.676,67.562,0.391,88.961,0.391,114.5c0,13.211,5.004,25.272,13.211,34.398c0.098,0.158,0.223,0.295,0.371,0.407
			C23.393,159.56,36.901,166,51.891,166c12.766,0,24.451-4.68,33.461-12.399c0.113-0.065,0.23-0.121,0.328-0.219
			c0.047-0.046,0.064-0.106,0.104-0.156C96.565,143.778,103.391,129.926,103.391,114.5z M20.262,136.437
			c1.014,0,1.898,0.538,2.402,1.34h-4.803C18.364,136.975,19.249,136.437,20.262,136.437z M35.391,160.106
			c-6.359-2.308-12.094-5.915-16.9-10.49h7.611h9.289V160.106z M17.422,146.616v-5.84h5.68v5.84H17.422z M65.391,133.173v14.934
			c0,0.004-0.002,0.007-0.002,0.01s0.002,0.006,0.002,0.01v12.948c-1.312,0.381-2.645,0.716-4,0.985v-28.887H65.391z
			 M68.391,149.616h11.402l2.574,2.574c-4.15,3.363-8.863,6.06-13.977,7.916V149.616z M84.649,150.229l-3.613-3.612H68.391v-13.443
			h1.5c0.828,0,1.5-0.672,1.5-1.5s-0.672-1.5-1.5-1.5h-31.5v-18.401h-3v18.401h-1.5c-0.83,0-1.5,0.672-1.5,1.5s0.67,1.5,1.5,1.5
			h24.5v29.379c-2.129,0.286-4.295,0.448-6.5,0.448c-4.686,0-9.213-0.681-13.5-1.926v-25.401h-3v10.943h-9.289v-7.34
			c0-2.7-1.846-4.973-4.34-5.638v-2.969c0-0.828-0.672-1.5-1.5-1.5s-1.5,0.672-1.5,1.5v2.969c-2.494,0.665-4.34,2.938-4.34,5.638
			v5.984C7.534,136.884,3.391,126.167,3.391,114.5c0-23.758,16.805-43.699,40.08-47.76l-5.52,14.349h3.215l10.609-27.583
			l10.607,27.583h3.213l-5.533-14.391c23.049,3.919,40.328,24.309,40.328,47.802C100.391,128.626,94.317,141.356,84.649,150.229z"/>
	</g>
</g>
<g id="Layer_5" display="none">
	<g display="inline">
		<g>
			<path fill="#414042" d="M47.28,145.835h-15c-0.828,0-1.5,0.672-1.5,1.5s0.672,1.5,1.5,1.5h15c0.828,0,1.5-0.672,1.5-1.5
				S48.108,145.835,47.28,145.835z"/>
			<path fill="#414042" d="M47.28,151.836h-15c-0.828,0-1.5,0.672-1.5,1.5s0.672,1.5,1.5,1.5h15c0.828,0,1.5-0.672,1.5-1.5
				S48.108,151.836,47.28,151.836z"/>
			<path fill="#414042" d="M55.78,154.836h18v-9.001h-18V154.836z M58.78,148.835h12v3.001h-12V148.835z"/>
			<path fill="#414042" d="M51.891,100.836h2.918c0.828,0,1.5-0.672,1.5-1.5s-0.672-1.5-1.5-1.5h-2.918c-0.828,0-1.5,0.672-1.5,1.5
				S51.063,100.836,51.891,100.836z"/>
			<path fill="#414042" d="M47.608,115.044h2.916c0.828,0,1.5-0.672,1.5-1.5s-0.672-1.5-1.5-1.5h-2.916c-0.828,0-1.5,0.672-1.5,1.5
				S46.78,115.044,47.608,115.044z"/>
			<path fill="#414042" d="M46.006,21.738c0.098,0.02,0.199,0.03,0.303,0.03h17c0.826,0,1.5,0.673,1.5,1.5s-0.674,1.5-1.5,1.5h-7
				c-0.104,0-0.205,0.011-0.303,0.03c-2.338,0.159-4.197,2.092-4.197,4.47c0,0.828,0.672,1.5,1.5,1.5s1.5-0.672,1.5-1.5
				c0-0.827,0.672-1.5,1.5-1.5h7c0.104,0,0.205-0.011,0.303-0.03c2.338-0.159,4.197-2.092,4.197-4.47s-1.859-4.311-4.197-4.47
				c-0.098-0.02-0.199-0.03-0.303-0.03h-17c-0.828,0-1.5-0.673-1.5-1.5s0.672-1.5,1.5-1.5h7c0.104,0,0.205-0.011,0.303-0.03
				c2.338-0.159,4.197-2.092,4.197-4.47c0-0.828-0.672-1.5-1.5-1.5s-1.5,0.672-1.5,1.5c0,0.827-0.674,1.5-1.5,1.5h-7
				c-0.104,0-0.205,0.011-0.303,0.03c-2.338,0.159-4.197,2.092-4.197,4.47S43.668,21.579,46.006,21.738z"/>
			<polygon fill="#414042" points="28.959,84.479 28.959,78.484 27.459,76.984 25.959,78.484 25.959,84.479 23.28,84.479 
				23.28,87.479 31.28,87.479 31.28,84.479 			"/>
		</g>
		<g>
			<path fill="#414042" d="M62.147,64.034L61.26,34.79c-0.025-0.81-0.689-1.454-1.5-1.454H44.797c-0.811,0-1.475,0.645-1.498,1.454
				l-0.883,29.094C17.993,68.411,0.391,89.495,0.391,114.5c0,14.116,5.713,26.921,14.943,36.233c0.109,0.161,0.25,0.3,0.412,0.408
				c5.826,5.746,13.006,10.12,21.016,12.587c0.09,0.036,0.184,0.062,0.281,0.08c3.209,0.969,6.549,1.632,9.986,1.955
				c0.082,0.014,0.164,0.025,0.25,0.025c0.012,0,0.023-0.003,0.035-0.004c1.508,0.134,3.033,0.215,4.576,0.215
				c5.16,0,10.143-0.771,14.846-2.19c0.113-0.02,0.221-0.049,0.324-0.092c8.371-2.586,15.828-7.258,21.783-13.399
				c0.158-0.112,0.295-0.254,0.398-0.419c8.76-9.236,14.148-21.696,14.148-35.399C103.391,89.892,86.118,68.869,62.147,64.034z
				 M42.325,66.949l-1.633,53.841c-0.025,0.828,0.625,1.521,1.453,1.545c0.826,0.039,1.52-0.625,1.545-1.453l0.609-20.104
				c0.125,0.034,0.254,0.059,0.391,0.059h2.918c0.828,0,1.5-0.672,1.5-1.5s-0.672-1.5-1.5-1.5H44.69
				c-0.104,0-0.205,0.011-0.303,0.03l1.217-40.107h1.461c0.828,0,1.5-0.672,1.5-1.5s-0.672-1.5-1.5-1.5h-1.371l0.559-18.423h12.053
				l0.139,4.525h-1.582c-0.828,0-1.5,0.672-1.5,1.5s0.672,1.5,1.5,1.5h1.672l1.119,36.889h-1.332c-0.828,0-1.5,0.672-1.5,1.5
				s0.672,1.5,1.5,1.5h1.422l1.127,37.132c0.023,0.812,0.689,1.454,1.498,1.454c0.016,0,0.031,0,0.047-0.001
				c0.826-0.024,1.479-0.717,1.453-1.545l-1.16-38.246c0.02-0.095,0.029-0.193,0.029-0.294c0-0.126-0.02-0.247-0.049-0.364
				l-0.449-14.774c3.309,0.717,6.473,1.766,9.469,3.102c-1.385,4.447-3.1,16.3-4.055,55.379H33.78V90.979c0-0.828-0.672-1.5-1.5-1.5
				h-10c-0.828,0-1.5,0.672-1.5,1.5v6.5h-7v-6.5c0-0.828-0.672-1.5-1.5-1.5h-2.008C17.1,78.075,28.524,69.695,42.325,66.949z
				 M20.78,100.479v13.977h-7v-13.977H20.78z M86.481,148.452c-5.559,5.664-12.49,9.977-20.254,12.384H57.28
				c-0.828,0-1.5,0.672-1.5,1.5c0,0.172,0.035,0.334,0.088,0.487c-1.312,0.107-2.637,0.177-3.977,0.177
				c-1.047,0-2.082-0.045-3.111-0.11v-2.054H37.555c-7.406-2.297-14.055-6.331-19.479-11.614v-14.63h68.404V148.452z M95.76,121.329
				h4.141c-1.264,8.935-4.967,17.093-10.42,23.776v-13.514H15.077v14.43C7.801,137.537,3.391,126.527,3.391,114.5
				c0-4.867,0.719-9.573,2.045-14.021H8.28v-3H6.428c0.635-1.716,1.375-3.381,2.195-5h2.156v6.5v16.977c0,0.828,0.672,1.5,1.5,1.5
				h10c0.828,0,1.5-0.672,1.5-1.5V92.479h7v33.112H14.577c-0.828,0-1.5,0.672-1.5,1.5s0.672,1.5,1.5,1.5h54.504h0.037h20.863
				c0.828,0,1.5-0.672,1.5-1.5s-0.672-1.5-1.5-1.5H70.653c0.723-29.438,1.994-47.588,3.789-54.04
				c3.473,1.83,6.719,4.109,9.666,6.735h-5.32c-0.117,0.928-0.232,1.936-0.344,3h8.75c0.873,0.926,1.709,1.884,2.506,2.875
				c-0.322,4.015-0.582,8.74-0.777,14.146H77.198c-0.051,0.978-0.102,1.975-0.15,3h11.775c-0.156,5.125-0.258,10.811-0.309,17.021
				H76.407c-0.029,0.983-0.059,1.987-0.086,3h13.672c0.004,0,0.008,0,0.01,0c0.104,0,0.205-0.011,0.303-0.03
				c0.025-0.006,0.051-0.017,0.076-0.024c0.07-0.018,0.139-0.035,0.205-0.062c0.025-0.012,0.049-0.028,0.074-0.041
				c0.061-0.03,0.123-0.06,0.18-0.098c0.027-0.018,0.049-0.041,0.074-0.061c0.051-0.039,0.102-0.076,0.146-0.122
				c0.027-0.025,0.047-0.057,0.072-0.085c0.037-0.044,0.078-0.087,0.111-0.136c0.025-0.036,0.041-0.076,0.062-0.114
				c0.025-0.047,0.055-0.091,0.076-0.14c0.02-0.045,0.029-0.094,0.045-0.141c0.014-0.046,0.033-0.091,0.043-0.14
				c0.01-0.048,0.01-0.1,0.016-0.15c0.006-0.049,0.016-0.096,0.016-0.146c0.084-13.022,0.4-23.748,0.938-31.986
				c2.129,3.242,3.873,6.749,5.18,10.455H96.42c-0.828,0-1.5,0.672-1.5,1.5s0.672,1.5,1.5,1.5h2.152
				c1.184,4.208,1.818,8.634,1.818,13.192c0,1.29-0.064,2.564-0.164,3.829H95.76c-0.828,0-1.5,0.672-1.5,1.5
				S94.932,121.329,95.76,121.329z"/>
		</g>
	</g>
</g>
</svg>
